<svg width="8" height="15" viewBox="0 0 8 15" xmlns="http://www.w3.org/2000/svg">
<path fill-rule="evenodd" clip-rule="evenodd" d="M6.6832 0.168624C6.90803 -0.056208 7.27256 -0.056208 7.49739 0.168624C7.72222 0.393456 7.72222 0.757981 7.49739 0.982813L1.391 7.0892L7.49738 13.1956C7.72221 13.4204 7.72221 13.7849 7.49738 14.0098C7.27254 14.2346 6.90802 14.2346 6.68319 14.0098L0.174511 7.50109C0.172897 7.49952 0.171289 7.49793 0.169689 7.49633C0.0880022 7.41464 0.0359941 7.31451 0.0136647 7.20935C-0.0254931 7.02504 0.0265093 6.82523 0.169673 6.68207C0.171668 6.68007 0.173673 6.6781 0.175689 6.67614L6.6832 0.168624Z"/>
</svg>
