<svg width="17" height="20" viewBox="0 0 17 20" xmlns="http://www.w3.org/2000/svg">
<path fill-rule="evenodd" clip-rule="evenodd" d="M5.00446 18.5283C5.00446 17.9107 4.51622 17.4166 3.90592 17.4166H2.07502V2.09987H12.6943V6.1761C12.6943 6.79371 13.1825 7.2878 13.7928 7.2878C14.4031 7.2878 14.8913 6.79371 14.8913 6.1761V1.1117C14.8913 0.494088 14.4031 0 13.7928 0H1.09854C0.48824 0 0 0.494088 0 1.1117V18.5283C0 19.1459 0.48824 19.64 1.09854 19.64H3.90592C4.51622 19.64 5.00446 19.1459 5.00446 18.5283ZM13.7926 12.2287C13.1823 12.2287 12.6941 12.7228 12.6941 13.3404V17.2931H10.9853C10.375 17.2931 9.88672 17.7872 9.88672 18.4048C9.88672 19.0224 10.375 19.5165 10.9853 19.5165H13.7926C14.4029 19.5165 14.8912 19.0224 14.8912 18.4048V13.3404C14.8912 12.7228 14.4029 12.2287 13.7926 12.2287ZM8.05645 17.4166C8.66675 17.4166 9.15499 17.9107 9.15499 18.5283C9.15499 19.1459 8.66675 19.64 8.05645 19.64H6.83585C6.22555 19.64 5.7373 19.1459 5.7373 18.5283C5.7373 17.9107 6.22555 17.4166 6.83585 17.4166H8.05645ZM9.64339 6.29963C9.27721 5.92907 8.54485 5.92907 8.17867 6.29963L5.6154 8.77007C5.0051 9.63473 5.49334 10.3759 5.6154 10.4994L8.17867 13.0933C8.54485 13.4639 9.27721 13.4639 9.64339 13.0933C10.0096 12.7228 10.0096 11.9816 9.64339 11.6111L8.91103 10.8699H15.5023C16.1126 10.8699 16.6008 10.3759 16.6008 9.75825C16.6008 9.14064 16.1126 8.64655 15.5023 8.64655H8.91103L9.64339 7.7819C10.0096 7.41133 10.0096 6.6702 9.64339 6.29963Z"/>
</svg>
