<svg width="20" height="16" viewBox="0 0 20 16" xmlns="http://www.w3.org/2000/svg">
<path fill-rule="evenodd" clip-rule="evenodd" d="M3.78906 2.11742H15.7031L9.70385 7.44073L3.78906 2.11742ZM9.0195 9.53059L9.01961 9.53068C9.39028 9.90124 10.008 9.90122 10.5021 9.65413L17.5443 3.31615V12.8664H13.4671C12.8494 12.8664 12.3552 13.3606 12.3552 13.9784C12.3552 14.5961 12.8494 15.0903 13.4671 15.0903H18.5327C19.1505 15.0903 19.6447 14.5961 19.6447 13.9784V1.12901C19.6447 0.592836 19.2724 0.149737 18.7702 0.0420492C18.6105 -0.00447631 18.4416 -0.0117515 18.2825 0.0170426H1.11196C0.873822 0.0170426 0.65404 0.090485 0.473852 0.216136C0.389532 0.264766 0.31267 0.322429 0.247328 0.387771C0.121219 0.51388 0.0523185 0.682896 0.0308945 0.865621C0.0106913 0.949957 0 1.03815 0 1.12901V13.9784C0 14.5961 0.494207 15.0903 1.11196 15.0903H6.17758C6.79534 15.0903 7.28955 14.5961 7.28955 13.9784C7.28955 13.3606 6.79534 12.8664 6.17758 12.8664H2.10038V3.40223L9.0195 9.53059ZM11.4903 13.9784C11.4903 13.3607 10.9961 12.8664 10.3783 12.8664H9.14282C8.52506 12.8664 8.03086 13.3607 8.03086 13.9784C8.03086 14.5962 8.52506 15.0904 9.14282 15.0904H10.3783C10.9961 15.0904 11.4903 14.5962 11.4903 13.9784Z"/>
</svg>
