<svg width="15" height="20" viewBox="0 0 15 20" xmlns="http://www.w3.org/2000/svg">
<path d="M7.63718 3.83007C8.50204 3.83007 9.3669 4.20072 9.98466 4.81848C10.726 5.31269 11.0966 6.17755 11.0966 7.16596C11.0966 8.15438 10.726 8.89569 10.1082 9.637C9.49046 10.2548 8.62559 10.6254 7.63718 10.6254C6.77232 10.6254 5.90746 10.2548 5.16615 9.637C4.54839 9.01924 4.17773 8.15438 4.17773 7.16596C4.17773 6.3011 4.54839 5.43624 5.16615 4.69493C5.78391 4.07717 6.64877 3.70652 7.63718 3.83007ZM8.62559 6.17755C8.37849 5.93045 8.00784 5.8069 7.63718 5.8069C7.26653 5.8069 7.01942 5.93045 6.77232 6.17755C6.40166 6.54821 6.27811 6.79531 6.27811 7.16596C6.27811 7.53662 6.40166 7.90727 6.64877 8.15438C6.89587 8.40148 7.14297 8.52503 7.51363 8.52503C7.88428 8.52503 8.13139 8.40148 8.37849 8.15438C8.62559 7.90727 8.74915 7.66017 8.74915 7.28952C8.74915 6.91886 8.74915 6.42465 8.62559 6.17755Z"/>
<path d="M9.11932 14.8262C9.48997 14.332 10.1077 14.332 10.6019 14.7026C11.0961 15.0733 11.0961 15.6911 10.7255 16.1853C10.3548 16.6795 9.98418 17.0501 9.61353 17.5443C9.24287 17.915 8.87222 18.4092 8.37801 18.7799C8.00735 19.1505 7.3896 19.1505 6.89539 18.7799C5.16567 17.0501 3.43594 14.8262 2.20043 12.7258C1.08846 10.8725 0.470703 9.01927 0.470703 7.166C0.470703 5.18917 1.21201 3.33589 2.57108 2.10038C3.93015 0.864862 5.65987 0 7.6367 0C9.61353 0 11.4668 0.74131 12.7023 2.10038C13.9378 3.45945 14.8027 5.18917 14.8027 7.166C14.8027 7.6602 14.8027 8.03086 14.6791 8.52506C14.6791 8.89572 14.5556 9.38993 14.3085 9.88413C14.1849 10.3783 13.5672 10.749 13.073 10.6254C12.5788 10.5019 12.2081 9.88413 12.3317 9.38993C12.4552 9.01927 12.5788 8.64862 12.5788 8.27796C12.5788 7.90731 12.5788 7.6602 12.5788 7.28955C12.5788 5.93048 12.0846 4.57141 11.0961 3.70655C10.3548 2.71814 8.99577 2.22393 7.6367 2.22393C6.27763 2.22393 4.91856 2.71814 3.93015 3.70655C3.06529 4.57141 2.44753 5.80693 2.44753 7.28955C2.44753 8.64862 2.94174 10.2548 3.93015 11.861C4.79501 13.4671 6.15408 15.1969 7.51315 16.6795L8.00735 16.0617C8.37801 15.6911 8.74866 15.3204 9.11932 14.8262ZM11.3432 11.7374C11.5904 11.2432 12.2081 11.1196 12.7023 11.3668C13.1965 11.6139 13.4436 12.2316 13.073 12.7258C12.9494 12.9729 12.8259 13.22 12.5788 13.5907C12.3317 14.0849 11.5904 14.2084 11.0961 13.8378C10.6019 13.5907 10.4784 12.8494 10.849 12.3552C11.0961 12.2316 11.2197 11.9845 11.3432 11.7374Z"/>
</svg>
