<svg width="15" height="20" viewBox="0 0 15 20" xmlns="http://www.w3.org/2000/svg">
<path fill-rule="evenodd" clip-rule="evenodd" d="M5.00446 18.5283C5.00446 17.9107 4.51622 17.4166 3.90592 17.4166H2.07502V2.09987H12.6943V6.1761C12.6943 6.79371 13.1825 7.2878 13.7928 7.2878C14.4031 7.2878 14.8913 6.79371 14.8913 6.1761V1.1117C14.8913 0.494088 14.4031 0 13.7928 0H1.09854C0.48824 0 0 0.494088 0 1.1117V18.5283C0 19.1459 0.48824 19.64 1.09854 19.64H3.90592C4.51622 19.64 5.00446 19.1459 5.00446 18.5283ZM13.7926 8.22871C13.1823 8.22871 12.6941 8.7228 12.6941 9.34041V17.2931H10.9853C10.375 17.2931 9.88672 17.7872 9.88672 18.4048C9.88672 19.0224 10.375 19.5165 10.9853 19.5165H13.7926C14.4029 19.5165 14.8912 19.0224 14.8912 18.4048V9.34041C14.8912 8.7228 14.4029 8.22871 13.7926 8.22871ZM8.05645 17.4166C8.66675 17.4166 9.15499 17.9107 9.15499 18.5283C9.15499 19.1459 8.66675 19.64 8.05645 19.64H6.83585C6.22555 19.64 5.7373 19.1459 5.7373 18.5283C5.7373 17.9107 6.22555 17.4166 6.83585 17.4166H8.05645ZM9.41768 5.1117C9.41768 4.49409 8.92944 4 8.31914 4H7.09854C6.48824 4 6 4.49409 6 5.1117C6 5.72931 6.48824 6.2234 7.09854 6.2234H8.31914C8.92944 6.2234 9.41768 5.72931 9.41768 5.1117Z"/>
</svg>
