<svg width="21" height="21" viewBox="0 0 21 21" xmlns="http://www.w3.org/2000/svg">
<path fill-rule="evenodd" clip-rule="evenodd" d="M15.5 2.70322C13.9 1.00119 11.6 0 9.1 0C6.6 0 4.4 1.10131 2.7 2.70322C1 4.30513 0 6.60787 0 9.11086C0 11.6138 1.1 13.8165 2.7 15.5185C4.3 17.2205 6.6 18.2217 9.1 18.2217C11.6 18.2217 13.8 17.1204 15.5 15.5185C17.2 13.9166 18.2 11.6138 18.2 9.11086C18.2 6.60787 17.1 4.40525 15.5 2.70322ZM9.1 2.50298C10.8 2.50298 12.5 3.20382 13.7 4.40525C14.9 5.60668 15.6 7.20859 15.5 9.01074C15.5 10.7128 14.8 12.4148 13.6 13.6162C12.5 14.7175 10.8 15.5185 9 15.5185C7.3 15.5185 5.6 14.8177 4.4 13.6162C3.3 12.5149 2.5 10.8129 2.5 9.01074C2.5 7.30871 3.3 5.60668 4.5 4.40525C5.6 3.30394 7.3 2.50298 9.1 2.50298ZM16.1001 16.1192C15.6001 16.6198 15.6001 17.4207 16.1001 17.9213C16.1001 17.9213 18.8001 20.5244 18.8001 20.6246C19.3001 21.1251 20.1001 21.1251 20.6001 20.6246C21.1001 20.124 21.1001 19.323 20.6001 18.8224L17.9001 16.1192C17.4001 15.6186 16.6001 15.6186 16.1001 16.1192Z"/>
</svg>
