<svg width="17" height="16" viewBox="0 0 17 16" xmlns="http://www.w3.org/2000/svg">
<path d="M10.3851 1.14875L11.7951 3.96875C11.9851 4.35875 12.4951 4.72875 12.9251 4.80875L15.4751 5.22875C17.1051 5.49875 17.4851 6.67875 16.3151 7.85875L14.3251 9.84875C13.9951 10.1788 13.8051 10.8288 13.9151 11.2988L14.4851 13.7588C14.9351 15.6988 13.8951 16.4588 12.1851 15.4388L9.79506 14.0188C9.36506 13.7588 8.64506 13.7588 8.21506 14.0188L5.82506 15.4388C4.11506 16.4488 3.07506 15.6988 3.52506 13.7588L4.09506 11.2988C4.18506 10.8188 3.99506 10.1688 3.66506 9.83875L1.67506 7.84875C0.505059 6.67875 0.885059 5.49875 2.51506 5.21875L5.06506 4.79875C5.49506 4.72875 6.00506 4.34875 6.19506 3.95875L7.60506 1.13875C8.37506 -0.381247 9.61506 -0.381247 10.3851 1.14875Z" fill="currentColor"/>
</svg>
