<svg width="20" height="20" viewBox="0 0 20 20" xmlns="http://www.w3.org/2000/svg">
<path fill-rule="evenodd" clip-rule="evenodd" d="M12.4571 17.6C12.9143 17.4857 13.4857 17.7143 13.7143 18.2857C13.8286 18.7429 13.6 19.3143 13.0286 19.5429C12.8 19.6 12.5429 19.6571 12.2857 19.7143C12.0286 19.7714 11.7714 19.8286 11.5429 19.8857C11.0857 20 10.5143 20 9.94286 20C7.2 20 4.68571 18.8571 2.85714 17.0286C1.14286 15.2 0 12.6857 0 9.94286C0 7.2 1.14286 4.68571 2.97143 2.85714C4.8 1.02857 7.2 0 9.94286 0C12.6857 0 15.2 1.14286 17.0286 2.97143C18.8571 4.8 20 7.31429 20 10.0571C20 10.5143 20 10.9714 19.8857 11.4286C19.8286 11.6571 19.8 11.8857 19.7714 12.1143C19.7429 12.3429 19.7143 12.5714 19.6571 12.8C19.5429 13.2571 18.9714 13.6 18.5143 13.4857C18.0571 13.3714 17.7143 12.8 17.8286 12.3429C17.9429 12 18.0571 11.5429 18.0571 11.2C18.0571 11.0286 18.0857 10.8286 18.1143 10.6286L18.1143 10.6286L18.1143 10.6285C18.1429 10.4285 18.1714 10.2286 18.1714 10.0571C18.1714 7.88572 17.2571 5.82857 15.7714 4.34286C14.2857 2.85714 12.3429 1.94286 10.0571 1.94286C7.77143 1.94286 5.71429 2.85714 4.34286 4.22857C2.97143 5.6 1.94286 7.65714 1.94286 9.94286C1.94286 12.2286 2.85714 14.1714 4.34286 15.6571C5.82857 17.1429 7.77143 18.0571 10.0571 18.0571C10.5143 18.0571 10.9714 18.0571 11.3143 17.9429C11.4857 17.8857 11.6856 17.8286 11.8856 17.7715L11.8857 17.7714C12.0857 17.7143 12.2857 17.6571 12.4571 17.6ZM16.5712 14.6285C16.7998 14.1714 17.4855 14.0571 17.9426 14.4C18.3998 14.6285 18.514 15.3143 18.1712 15.7714L18.1712 15.7714C17.8283 16.2286 17.4855 16.6857 17.1426 17.0285L17.1426 17.0285C16.7998 17.3714 16.4569 17.7143 15.9998 17.9428C15.5426 18.2857 14.9712 18.1714 14.6283 17.8285C14.2855 17.3714 14.3998 16.8 14.7426 16.4571C15.0855 16.2285 15.4283 16 15.6569 15.6571C16.114 15.3143 16.3426 15.0857 16.5712 14.6285ZM10.057 3.65709C9.4856 3.65709 9.02846 4.11423 9.02846 4.68566L9.14275 10.0571C9.14275 10.6285 9.59989 11.0857 10.1713 11.0857H13.5999C14.1713 11.0857 14.6285 10.6285 14.6285 10.0571C14.6285 9.48566 14.1713 9.02851 13.5999 9.02851H11.0856V4.68566C11.0856 4.11423 10.6285 3.65709 10.057 3.65709Z"/>
</svg>
