<?xml version="1.0" encoding="utf-8"?><svg viewBox="0 0 27 25" xmlns="http://www.w3.org/2000/svg" xmlns:xlink="http://www.w3.org/1999/xlink"><style>:root>svg{display:none}:root>svg:target{display:block}</style><svg viewBox="0 0 8 15" id="ic_arrow" xmlns="http://www.w3.org/2000/svg"><path fill-rule="evenodd" clip-rule="evenodd" d="M6.683.169a.576.576 0 0 1 .814.814L1.391 7.089l6.106 6.107a.576.576 0 0 1-.814.814L.175 7.5a.573.573 0 0 1 .001-.825L6.683.17z"/></svg><svg viewBox="0 0 18 25" id="ic_buttonUp" xmlns="http://www.w3.org/2000/svg"><path d="M8.7 0l1.414 1.414-8.7 8.7L0 8.7z"/><path d="M7.286 1.414L8.7 0l8.748 8.748-1.415 1.414zM8.7 6.7l1.414 1.414-8.7 8.7L0 15.4z"/><path d="M7.286 8.114L8.7 6.7l8.748 8.748-1.415 1.414z"/></svg><svg viewBox="0 0 17 20" id="ic_callback" xmlns="http://www.w3.org/2000/svg"><path fill-rule="evenodd" clip-rule="evenodd" d="M5.004 18.528a1.1 1.1 0 0 0-1.098-1.111H2.075V2.1h10.62v4.076a1.1 1.1 0 0 0 1.098 1.112 1.1 1.1 0 0 0 1.098-1.112V1.112A1.1 1.1 0 0 0 13.793 0H1.099A1.1 1.1 0 0 0 0 1.112v17.416a1.1 1.1 0 0 0 1.099 1.112h2.807a1.1 1.1 0 0 0 1.098-1.112zm8.789-6.3a1.1 1.1 0 0 0-1.099 1.112v3.953h-1.709a1.1 1.1 0 0 0-1.098 1.112 1.1 1.1 0 0 0 1.098 1.111h2.808a1.1 1.1 0 0 0 1.098-1.111V13.34a1.1 1.1 0 0 0-1.098-1.111zm-5.737 5.189a1.1 1.1 0 0 1 1.099 1.111 1.1 1.1 0 0 1-1.099 1.112h-1.22a1.1 1.1 0 0 1-1.099-1.112 1.1 1.1 0 0 1 1.099-1.111h1.22zM9.643 6.3c-.366-.37-1.098-.37-1.464 0L5.615 8.77c-.61.865-.122 1.606 0 1.73l2.564 2.593c.366.37 1.098.37 1.464 0 .367-.37.367-1.111 0-1.482l-.732-.741h6.591a1.1 1.1 0 0 0 1.099-1.112 1.1 1.1 0 0 0-1.099-1.111H8.911l.732-.865c.367-.37.367-1.112 0-1.482z"/></svg><svg viewBox="0 0 14 14" id="ic_close" xmlns="http://www.w3.org/2000/svg"><path d="M13.295 2.115a.997.997 0 1 0-1.41-1.41L7 5.59 2.115.705a.997.997 0 1 0-1.41 1.41L5.59 7 .705 11.885a.997.997 0 1 0 1.41 1.41L7 8.41l4.885 4.885a.997.997 0 1 0 1.41-1.41L8.41 7l4.885-4.885z"/></svg><svg viewBox="0 0 20 16" id="ic_email" xmlns="http://www.w3.org/2000/svg"><path fill-rule="evenodd" clip-rule="evenodd" d="M3.79 2.117h11.913l-6 5.324L3.79 2.117zm5.23 7.414c.37.37.988.37 1.482.123l7.042-6.338v9.55h-4.077c-.618 0-1.112.495-1.112 1.112 0 .618.494 1.112 1.112 1.112h5.066c.617 0 1.112-.494 1.112-1.112V1.13c0-.536-.373-.98-.875-1.087a1.071 1.071 0 0 0-.488-.025H1.112a1.11 1.11 0 0 0-.638.2 1.09 1.09 0 0 0-.227.17.795.795 0 0 0-.216.479A1.13 1.13 0 0 0 0 1.129v12.85c0 .617.494 1.111 1.112 1.111h5.066c.617 0 1.112-.494 1.112-1.112 0-.617-.495-1.112-1.112-1.112H2.1V3.402l6.92 6.129zm2.47 4.447c0-.617-.494-1.112-1.112-1.112H9.143c-.618 0-1.112.495-1.112 1.112 0 .618.494 1.112 1.112 1.112h1.235c.618 0 1.112-.494 1.112-1.112z"/></svg><svg viewBox="0 0 27 15" id="ic_faq_arrow" xmlns="http://www.w3.org/2000/svg"><path fill-rule="evenodd" clip-rule="evenodd" d="M26.163.293a1 1 0 0 0-1.414 0L13.435 11.607 2.12.293A1 1 0 0 0 .707 1.707l12.02 12.021a1 1 0 0 0 1.415 0l12.021-12.02a1 1 0 0 0 0-1.415z"/></svg><svg viewBox="0 0 15 20" id="ic_location" xmlns="http://www.w3.org/2000/svg"><path d="M7.637 3.83c.865 0 1.73.37 2.348.988.741.495 1.112 1.36 1.112 2.348 0 .988-.371 1.73-.989 2.471-.618.618-1.482.988-2.47.988-.866 0-1.73-.37-2.472-.988-.618-.618-.988-1.483-.988-2.471 0-.865.37-1.73.988-2.471.618-.618 1.483-.988 2.471-.865zm.989 2.348c-.248-.248-.618-.371-.989-.371-.37 0-.618.123-.865.37-.37.371-.494.618-.494.989 0 .37.124.741.37.988.248.247.495.371.866.371.37 0 .617-.124.864-.37.248-.248.371-.495.371-.865 0-.371 0-.865-.123-1.112z"/><path d="M9.12 14.826c.37-.494.988-.494 1.482-.123.494.37.494.988.123 1.482-.37.495-.74.865-1.111 1.36-.371.37-.742.864-1.236 1.235-.37.37-.988.37-1.483 0-1.73-1.73-3.46-3.954-4.695-6.054C1.088 10.872.47 9.019.47 7.166c0-1.977.742-3.83 2.101-5.066C3.931.865 5.66 0 7.637 0c1.977 0 3.83.741 5.065 2.1 1.236 1.36 2.1 3.09 2.1 5.066 0 .494 0 .865-.123 1.36 0 .37-.123.864-.37 1.358-.124.494-.742.865-1.236.741-.494-.123-.865-.74-.741-1.235.123-.37.247-.741.247-1.112V7.29c0-1.36-.494-2.719-1.483-3.583-.741-.989-2.1-1.483-3.46-1.483-1.358 0-2.717.494-3.706 1.483A5.025 5.025 0 0 0 2.448 7.29c0 1.359.494 2.965 1.482 4.571.865 1.606 2.224 3.336 3.583 4.819l.494-.618c.371-.37.742-.742 1.112-1.236zm2.223-3.089c.247-.494.865-.617 1.36-.37.494.247.74.865.37 1.359-.124.247-.247.494-.494.865-.247.494-.989.617-1.483.247-.494-.247-.618-.989-.247-1.483.247-.123.37-.37.494-.618z"/></svg><svg viewBox="0 0 7 12" id="ic_pag_arrow" xmlns="http://www.w3.org/2000/svg"><path fill-rule="evenodd" clip-rule="evenodd" d="M.293 1.05a1 1 0 0 0 0 1.414L3.829 6 .293 9.536a1 1 0 0 0 1.414 1.414l4.234-4.234a1 1 0 0 0 .009-1.423L1.707 1.05a1 1 0 0 0-1.414 0z"/></svg><svg viewBox="0 0 15 20" id="ic_phone" xmlns="http://www.w3.org/2000/svg"><path fill-rule="evenodd" clip-rule="evenodd" d="M5.004 18.528a1.1 1.1 0 0 0-1.098-1.111H2.075V2.1h10.62v4.076a1.1 1.1 0 0 0 1.098 1.112 1.1 1.1 0 0 0 1.098-1.112V1.112A1.1 1.1 0 0 0 13.793 0H1.099A1.1 1.1 0 0 0 0 1.112v17.416a1.1 1.1 0 0 0 1.099 1.112h2.807a1.1 1.1 0 0 0 1.098-1.112zm8.789-10.3a1.1 1.1 0 0 0-1.099 1.112v7.953h-1.709a1.1 1.1 0 0 0-1.098 1.112 1.1 1.1 0 0 0 1.098 1.111h2.808a1.1 1.1 0 0 0 1.098-1.111V9.34a1.1 1.1 0 0 0-1.098-1.111zm-5.737 9.189a1.1 1.1 0 0 1 1.099 1.111 1.1 1.1 0 0 1-1.099 1.112h-1.22a1.1 1.1 0 0 1-1.099-1.112 1.1 1.1 0 0 1 1.099-1.111h1.22zM9.418 5.112A1.1 1.1 0 0 0 8.319 4H7.1A1.1 1.1 0 0 0 6 5.112a1.1 1.1 0 0 0 1.099 1.111h1.22a1.1 1.1 0 0 0 1.099-1.111z"/></svg><svg viewBox="0 0 21 21" id="ic_search" xmlns="http://www.w3.org/2000/svg"><path fill-rule="evenodd" clip-rule="evenodd" d="M15.5 2.703C13.9 1.001 11.6 0 9.1 0 6.6 0 4.4 1.101 2.7 2.703 1 4.305 0 6.608 0 9.111c0 2.503 1.1 4.705 2.7 6.407 1.6 1.703 3.9 2.704 6.4 2.704 2.5 0 4.7-1.102 6.4-2.704 1.7-1.601 2.7-3.904 2.7-6.407s-1.1-4.706-2.7-6.408zm-6.4-.2c1.7 0 3.4.7 4.6 1.902 1.2 1.202 1.9 2.804 1.8 4.606 0 1.702-.7 3.404-1.9 4.605-1.1 1.101-2.8 1.902-4.6 1.902-1.7 0-3.4-.7-4.6-1.902-1.1-1.101-1.9-2.803-1.9-4.605 0-1.702.8-3.404 2-4.606 1.1-1.101 2.8-1.902 4.6-1.902zm7 13.616c-.5.5-.5 1.302 0 1.802 0 0 2.7 2.603 2.7 2.704.5.5 1.3.5 1.8 0 .5-.501.5-1.302 0-1.803l-2.7-2.703c-.5-.5-1.3-.5-1.8 0z"/></svg><svg viewBox="0 0 20 20" id="ic_time" xmlns="http://www.w3.org/2000/svg"><path fill-rule="evenodd" clip-rule="evenodd" d="M12.457 17.6c.457-.114 1.029.114 1.257.686.115.457-.114 1.028-.685 1.257-.229.057-.486.114-.743.171-.257.057-.515.115-.743.172-.457.114-1.029.114-1.6.114-2.743 0-5.257-1.143-7.086-2.971C1.143 15.2 0 12.686 0 9.943 0 7.2 1.143 4.686 2.971 2.857 4.8 1.03 7.2 0 9.943 0c2.743 0 5.257 1.143 7.086 2.971C18.857 4.8 20 7.314 20 10.057c0 .457 0 .914-.114 1.372a5.732 5.732 0 0 0-.115.685 5.695 5.695 0 0 1-.114.686c-.114.457-.686.8-1.143.686-.457-.115-.8-.686-.685-1.143.114-.343.228-.8.228-1.143 0-.171.029-.371.057-.571.029-.2.057-.4.057-.572 0-2.171-.914-4.228-2.4-5.714-1.485-1.486-3.428-2.4-5.714-2.4-2.286 0-4.343.914-5.714 2.286-1.372 1.371-2.4 3.428-2.4 5.714 0 2.286.914 4.228 2.4 5.714 1.486 1.486 3.428 2.4 5.714 2.4.457 0 .914 0 1.257-.114.172-.057.372-.114.572-.172.2-.057.4-.114.571-.171zm4.114-2.972c.229-.457.914-.57 1.372-.228.457.229.571.914.228 1.371-.343.458-.686.915-1.028 1.258-.343.342-.686.685-1.143.914-.457.343-1.029.228-1.372-.115-.342-.457-.228-1.028.115-1.37.342-.23.685-.458.914-.8.457-.344.686-.572.914-1.03zm-6.514-10.97c-.571 0-1.029.456-1.029 1.028l.115 5.371c0 .572.457 1.029 1.028 1.029H13.6c.571 0 1.029-.457 1.029-1.029 0-.571-.458-1.028-1.03-1.028h-2.513V4.686c0-.572-.457-1.029-1.029-1.029z"/></svg></svg>